<svg xmlns="http://www.w3.org/2000/svg" viewBox="0 0 86.56 83.22"><defs><style>.cls-1{fill:#cad86e;}</style></defs><g id="Layer_2" data-name="Layer 2"><g id="Gráficos"><path class="cls-1" d="M65.92,41.35a20.52,20.52,0,0,0-16.73,8.7l-4.88-2.86V41.75A21,21,0,0,0,59,8.54L58.58,8,58,8.34,55.71,9.72l-11.4,6.92V.1l-.71,0-.3,0c-.3,0-.6,0-.91,0-.51,0-1,0-1.49.07h0l-.7.05V4.27h0V37.51A16.79,16.79,0,0,1,37.79,4.86l.54-.15V.41L37.4.64a21,21,0,0,0,2.76,41.08v5.39l-4.67,2.75A20.48,20.48,0,0,0,.72,52.35L.4,53l.58.38.79.5h0l.6.43,12.24,7.86-.35.21L3.54,68.65h0L2.89,69,.59,70.38,0,70.73l.3.62a22,22,0,0,0,1.36,2.44l.39.6L2.67,74l1.51-.9.33-.18L34,55.59a16.83,16.83,0,0,1,1.39,6.7A16.64,16.64,0,0,1,18.89,79,16.21,16.21,0,0,1,7.24,74.12l-.42-.42-.5.3L4,75.39l-.79.47.63.68a20.54,20.54,0,0,0,15.07,6.68,20.95,20.95,0,0,0,18.7-29.75l4.58-2.69,5,2.9A20.94,20.94,0,0,0,65.92,83.22l.68,0h.22l.72,0v-.72l0-1h0v-.76l-.22-15.15L79,72.4h0l.69.42L82,74.17l.61.36.4-.59a21.21,21.21,0,0,0,1.39-2.44l.3-.62-.6-.35-2.29-1.36-.71-.42v0L52.8,52.16a16.42,16.42,0,0,1,13.12-6.62A16.65,16.65,0,0,1,82.41,62.29a17.06,17.06,0,0,1-.5,4l-.13.54.48.29,2.38,1.4.83.5.27-.94A20.94,20.94,0,0,0,65.92,41.35Zm-7-20.42A16.69,16.69,0,0,1,44.31,37.54V21.86l13-7.91A16.58,16.58,0,0,1,58.88,20.93Zm4.19,57.84a16.77,16.77,0,0,1-12.33-23l12.09,7.09ZM6.3,51.51a16.27,16.27,0,0,1,12.59-6,16.45,16.45,0,0,1,13,6.45L18.92,59.61Z"/></g></g></svg>